<?xml version="1.0" standalone="no"?>
<!DOCTYPE svg PUBLIC "-//W3C//DTD SVG 20010904//EN"
 "http://www.w3.org/TR/2001/REC-SVG-20010904/DTD/svg10.dtd">
<svg version="1.0" xmlns="http://www.w3.org/2000/svg"
 width="438.000000pt" height="412.000000pt" viewBox="0 0 438.000000 412.000000"
 preserveAspectRatio="xMidYMid meet">
<metadata>
Created by potrace 1.16, written by Peter Selinger 2001-2019
</metadata>
<g transform="translate(0.000000,412.000000) scale(0.100000,-0.100000)"
fill="#000000" stroke="none">
<path d="M2045 3234 c-95 -15 -200 -40 -275 -66 -498 -176 -830 -647 -830
-1178 0 -230 77 -501 190 -665 54 -78 162 -210 190 -230 42 -30 122 -97 145
-121 50 -51 314 -162 428 -181 20 -3 37 -9 37 -13 0 -11 157 -30 252 -30 95 0
240 17 248 30 3 4 39 15 80 24 128 29 363 136 377 172 3 8 10 14 15 14 13 0
127 93 181 147 62 62 150 185 186 259 19 38 37 71 41 74 15 10 38 68 64 156
70 239 75 469 14 709 -20 80 -64 196 -78 205 -4 3 -11 16 -15 30 -18 59 -123
200 -224 301 -183 184 -380 291 -631 345 -73 15 -333 27 -395 18z m415 -53
c52 -12 97 -25 100 -29 3 -4 52 -27 109 -52 57 -24 133 -64 169 -87 36 -24 68
-43 71 -43 3 0 54 -49 112 -108 119 -119 199 -235 250 -357 18 -44 36 -82 40
-85 4 -3 20 -52 35 -110 27 -99 28 -117 28 -305 0 -185 -2 -207 -27 -300 -15
-55 -32 -101 -37 -103 -6 -2 -10 -11 -10 -20 0 -21 -98 -216 -138 -274 -36
-53 -236 -258 -251 -258 -12 0 -101 -61 -101 -70 0 -9 -96 -56 -175 -86 -203
-78 -455 -104 -651 -69 -170 30 -347 93 -419 149 -11 8 -48 35 -82 58 -33 24
-84 62 -113 85 -61 50 -182 200 -210 261 -11 23 -24 42 -28 42 -28 0 -116 259
-138 408 -27 179 -9 398 48 567 25 75 78 198 88 205 5 3 36 47 69 97 34 51 83
113 109 137 26 25 74 69 106 100 64 59 248 166 330 190 27 8 52 20 55 25 4 6
60 22 126 36 107 22 138 25 280 21 118 -3 185 -9 255 -25z"/>
<path d="M2477 2934 c-3 -4 -6 -299 -7 -656 0 -522 2 -648 12 -642 9 6 9 3 -1
-9 -7 -9 -10 -24 -7 -33 5 -14 2 -15 -21 -9 -16 5 -36 8 -45 9 -9 0 -14 4 -12
8 5 8 -17 12 -49 10 -10 -1 -16 2 -13 7 14 23 -217 31 -297 11 -54 -14 -137
-49 -152 -64 -6 -6 -10 -17 -7 -24 2 -8 -2 -10 -13 -6 -19 8 -47 -16 -77 -64
-30 -49 -36 -147 -12 -194 38 -71 127 -150 152 -134 6 3 14 1 18 -5 4 -8 3 -9
-4 -5 -7 4 -12 5 -12 1 0 -20 149 -54 239 -55 78 0 201 17 199 28 -2 18 3 26
10 15 6 -9 18 -7 50 7 32 15 40 23 36 37 -5 15 -4 16 5 3 10 -13 13 -13 22 3
5 9 17 17 24 17 8 0 15 7 15 16 0 8 4 12 10 9 6 -3 7 1 4 9 -4 10 -1 16 10 16
8 0 23 15 33 33 17 30 18 88 21 850 l2 817 -63 0 c-35 0 -66 -3 -70 -6z"/>
</g>
</svg>
